<mxfile host="app.diagrams.net" modified="2023-11-25T10:57:29.737Z" agent="Mozilla/5.0 (Windows NT 10.0; Win64; x64) AppleWebKit/537.36 (KHTML, like Gecko) Chrome/119.0.0.0 Safari/537.36" version="22.1.4" etag="MlntOuoS0K99JWRNsfhm" type="device">
  <diagram id="5G6_NaP9JnnqqA77Su9J" name="Strona-1">
    <mxGraphModel dx="472" dy="770" grid="1" gridSize="10" guides="1" tooltips="1" connect="1" arrows="1" fold="1" page="1" pageScale="1" pageWidth="827" pageHeight="1169" math="0" shadow="0">
      <root>
        <mxCell id="0" />
        <mxCell id="1" parent="0" />
        <mxCell id="9pWeIKA2ZjvN80uIZNQs-13" style="edgeStyle=orthogonalEdgeStyle;rounded=0;orthogonalLoop=1;jettySize=auto;html=1;entryX=0;entryY=0.5;entryDx=0;entryDy=0;" edge="1" parent="1" source="9pWeIKA2ZjvN80uIZNQs-1" target="9pWeIKA2ZjvN80uIZNQs-12">
          <mxGeometry relative="1" as="geometry" />
        </mxCell>
        <mxCell id="9pWeIKA2ZjvN80uIZNQs-1" value="Użytkownik" style="whiteSpace=wrap;html=1;aspect=fixed;fillColor=#e1d5e7;strokeColor=#9673a6;" vertex="1" parent="1">
          <mxGeometry x="40" y="40" width="80" height="80" as="geometry" />
        </mxCell>
        <mxCell id="9pWeIKA2ZjvN80uIZNQs-6" value="listings_photos" style="rounded=0;whiteSpace=wrap;html=1;fillColor=#dae8fc;strokeColor=#6c8ebf;" vertex="1" parent="1">
          <mxGeometry x="600" y="280" width="120" height="40" as="geometry" />
        </mxCell>
        <mxCell id="9pWeIKA2ZjvN80uIZNQs-7" value="listings" style="rounded=0;whiteSpace=wrap;html=1;fillColor=#dae8fc;strokeColor=#6c8ebf;" vertex="1" parent="1">
          <mxGeometry x="600" y="160" width="120" height="40" as="geometry" />
        </mxCell>
        <mxCell id="9pWeIKA2ZjvN80uIZNQs-21" style="edgeStyle=orthogonalEdgeStyle;rounded=0;orthogonalLoop=1;jettySize=auto;html=1;entryX=0.5;entryY=1;entryDx=0;entryDy=0;" edge="1" parent="1" source="9pWeIKA2ZjvN80uIZNQs-8" target="9pWeIKA2ZjvN80uIZNQs-1">
          <mxGeometry relative="1" as="geometry" />
        </mxCell>
        <mxCell id="9pWeIKA2ZjvN80uIZNQs-8" value="2.5 Zwrócenie id utworzonego ogłoszenia" style="ellipse;whiteSpace=wrap;html=1;aspect=fixed;" vertex="1" parent="1">
          <mxGeometry x="230" y="355" width="90" height="90" as="geometry" />
        </mxCell>
        <mxCell id="9pWeIKA2ZjvN80uIZNQs-20" value="" style="edgeStyle=orthogonalEdgeStyle;rounded=0;orthogonalLoop=1;jettySize=auto;html=1;" edge="1" parent="1" source="9pWeIKA2ZjvN80uIZNQs-9" target="9pWeIKA2ZjvN80uIZNQs-8">
          <mxGeometry relative="1" as="geometry" />
        </mxCell>
        <mxCell id="9pWeIKA2ZjvN80uIZNQs-9" value="2.4 Sprawdzanie poprawności wykonania operacji" style="ellipse;whiteSpace=wrap;html=1;aspect=fixed;" vertex="1" parent="1">
          <mxGeometry x="442.5" y="357.5" width="85" height="85" as="geometry" />
        </mxCell>
        <mxCell id="9pWeIKA2ZjvN80uIZNQs-16" style="edgeStyle=orthogonalEdgeStyle;rounded=0;orthogonalLoop=1;jettySize=auto;html=1;entryX=0;entryY=0.5;entryDx=0;entryDy=0;" edge="1" parent="1" source="9pWeIKA2ZjvN80uIZNQs-10" target="9pWeIKA2ZjvN80uIZNQs-7">
          <mxGeometry relative="1" as="geometry">
            <Array as="points">
              <mxPoint x="563" y="230" />
              <mxPoint x="563" y="180" />
            </Array>
          </mxGeometry>
        </mxCell>
        <mxCell id="9pWeIKA2ZjvN80uIZNQs-17" style="edgeStyle=orthogonalEdgeStyle;rounded=0;orthogonalLoop=1;jettySize=auto;html=1;" edge="1" parent="1" source="9pWeIKA2ZjvN80uIZNQs-10" target="9pWeIKA2ZjvN80uIZNQs-6">
          <mxGeometry relative="1" as="geometry">
            <Array as="points">
              <mxPoint x="563" y="250" />
              <mxPoint x="563" y="300" />
            </Array>
          </mxGeometry>
        </mxCell>
        <mxCell id="9pWeIKA2ZjvN80uIZNQs-19" value="" style="edgeStyle=orthogonalEdgeStyle;rounded=0;orthogonalLoop=1;jettySize=auto;html=1;" edge="1" parent="1" source="9pWeIKA2ZjvN80uIZNQs-10" target="9pWeIKA2ZjvN80uIZNQs-9">
          <mxGeometry relative="1" as="geometry" />
        </mxCell>
        <mxCell id="9pWeIKA2ZjvN80uIZNQs-10" value="2.3 Utworzenie nowego ogłosznia" style="ellipse;whiteSpace=wrap;html=1;aspect=fixed;" vertex="1" parent="1">
          <mxGeometry x="445" y="200" width="80" height="80" as="geometry" />
        </mxCell>
        <mxCell id="9pWeIKA2ZjvN80uIZNQs-15" value="" style="edgeStyle=orthogonalEdgeStyle;rounded=0;orthogonalLoop=1;jettySize=auto;html=1;" edge="1" parent="1" source="9pWeIKA2ZjvN80uIZNQs-11" target="9pWeIKA2ZjvN80uIZNQs-10">
          <mxGeometry relative="1" as="geometry" />
        </mxCell>
        <mxCell id="9pWeIKA2ZjvN80uIZNQs-11" value="2.2 Wysłanie zadania o utworzenie nowego ogłoszenia" style="ellipse;whiteSpace=wrap;html=1;aspect=fixed;" vertex="1" parent="1">
          <mxGeometry x="430" y="25" width="110" height="110" as="geometry" />
        </mxCell>
        <mxCell id="9pWeIKA2ZjvN80uIZNQs-14" value="" style="edgeStyle=orthogonalEdgeStyle;rounded=0;orthogonalLoop=1;jettySize=auto;html=1;" edge="1" parent="1" source="9pWeIKA2ZjvN80uIZNQs-12" target="9pWeIKA2ZjvN80uIZNQs-11">
          <mxGeometry relative="1" as="geometry" />
        </mxCell>
        <mxCell id="9pWeIKA2ZjvN80uIZNQs-12" value="2.1 Użytkownik wprowadza dane ogłoszenia" style="ellipse;whiteSpace=wrap;html=1;aspect=fixed;" vertex="1" parent="1">
          <mxGeometry x="230" y="30" width="100" height="100" as="geometry" />
        </mxCell>
        <mxCell id="9pWeIKA2ZjvN80uIZNQs-23" value="" style="edgeStyle=orthogonalEdgeStyle;rounded=0;orthogonalLoop=1;jettySize=auto;html=1;" edge="1" parent="1" source="9pWeIKA2ZjvN80uIZNQs-22" target="9pWeIKA2ZjvN80uIZNQs-11">
          <mxGeometry relative="1" as="geometry" />
        </mxCell>
        <mxCell id="9pWeIKA2ZjvN80uIZNQs-22" value="users" style="rounded=0;whiteSpace=wrap;html=1;fillColor=#dae8fc;strokeColor=#6c8ebf;" vertex="1" parent="1">
          <mxGeometry x="600" y="60" width="120" height="40" as="geometry" />
        </mxCell>
      </root>
    </mxGraphModel>
  </diagram>
</mxfile>
